/* XPM */
static char * ac_bc_xpm[] = {
"48 48 469 2",
"  	c None",
". 	c #9BD8EF",
"+ 	c #9CD8EF",
"@ 	c #9CD8F0",
"# 	c #9ED9EF",
"$ 	c #A0D9EF",
"% 	c #A2D9EF",
"& 	c #A3DAEF",
"* 	c #A4DAEF",
"= 	c #9DD8EF",
"- 	c #9FD9EF",
"; 	c #A2DAEF",
"> 	c #A5DAEF",
", 	c #A8DBEF",
"' 	c #A9DBEF",
") 	c #AADCEF",
"! 	c #ABDCEF",
"~ 	c #A3D9EF",
"{ 	c #A6DBEF",
"] 	c #AADBEF",
"^ 	c #ACDCEF",
"/ 	c #AEDCEF",
"( 	c #B0DDEF",
"_ 	c #B1DDEF",
": 	c #B2DDEF",
"< 	c #ADDCEF",
"[ 	c #B3DDEF",
"} 	c #B5DEEF",
"| 	c #B7DEEF",
"1 	c #B8DFEF",
"2 	c #A5DAEE",
"3 	c #ABDBEF",
"4 	c #AFDCEF",
"5 	c #B6DEEF",
"6 	c #BBDFEF",
"7 	c #BDE0EF",
"8 	c #BEE0EF",
"9 	c #BFE1EF",
"0 	c #B9DFEF",
"a 	c #B0DCEF",
"b 	c #B4DEEF",
"c 	c #B8DEEF",
"d 	c #BBE0EF",
"e 	c #C1E1EF",
"f 	c #C2E2EF",
"g 	c #C4E2EF",
"h 	c #C5E3F0",
"i 	c #C4E2F4",
"j 	c #C1E1F4",
"k 	c #C7E3F0",
"l 	c #C9E4F0",
"m 	c #CBE5F0",
"n 	c #CCE6F1",
"o 	c #CFE6F7",
"p 	c #A9DAD7",
"q 	c #9ED6CE",
"r 	c #BEE1F2",
"s 	c #BADFF1",
"t 	c #A4DAEE",
"u 	c #CAE5F0",
"v 	c #CEE6F1",
"w 	c #D0E7F1",
"x 	c #D2E7F2",
"y 	c #D3E8F2",
"z 	c #DCEAFB",
"A 	c #96D4C0",
"B 	c #27B15A",
"C 	c #87C994",
"D 	c #B5D8C5",
"E 	c #BDE0EB",
"F 	c #BADFF2",
"G 	c #A6DAEE",
"H 	c #C6E3F0",
"I 	c #CCE5F0",
"J 	c #D4E8F2",
"K 	c #D6E9F2",
"L 	c #D7EAF3",
"M 	c #D8EAF3",
"N 	c #D7EAF2",
"O 	c #E2EDFC",
"P 	c #ACDCCF",
"Q 	c #12AB4C",
"R 	c #5EBE79",
"S 	c #B5D4B1",
"T 	c #A6D0A4",
"U 	c #AAD3B3",
"V 	c #BADEE7",
"W 	c #B9DFF2",
"X 	c #AFDDEF",
"Y 	c #C5E3EF",
"Z 	c #D1E7F1",
"` 	c #D5E9F2",
" .	c #DAEBF3",
"..	c #DCECF3",
"+.	c #DDECF3",
"@.	c #E5EFFA",
"#.	c #CAE6E4",
"$.	c #28B15D",
"%.	c #20AD52",
"&.	c #A0CFA5",
"*.	c #A8D1A9",
"=.	c #A3D0A6",
"-.	c #9FCFA0",
";.	c #A4D2AD",
">.	c #B8DEE8",
",.	c #B7DFF2",
"'.	c #9DD9EF",
").	c #BAE0F3",
"!.	c #CAE4F6",
"~.	c #D0E6F6",
"{.	c #E0EDF5",
"].	c #E2EEF5",
"^.	c #E8F1F9",
"/.	c #E6F0F8",
"(.	c #4BBD79",
"_.	c #04A640",
":.	c #6AC182",
"<.	c #ABD2AA",
"[.	c #A0D0A4",
"}.	c #A0CFA3",
"|.	c #9ECFA2",
"1.	c #9ACE9B",
"2.	c #A0D2AE",
"3.	c #B7DEEC",
"4.	c #B3DEF1",
"5.	c #99D8EF",
"6.	c #A7DBEE",
"7.	c #B7DFF5",
"8.	c #AFD9D8",
"9.	c #87CAA0",
"0.	c #64C392",
"a.	c #AEDCD6",
"b.	c #DDEBFB",
"c.	c #DCEBF3",
"d.	c #E1EEF5",
"e.	c #E5F0F6",
"f.	c #EAF2F8",
"g.	c #F7F7FF",
"h.	c #74CB99",
"i.	c #05A640",
"j.	c #30B25E",
"k.	c #9ECFA1",
"l.	c #A0D0A3",
"m.	c #9DCFA1",
"n.	c #9CCFA0",
"o.	c #9ACF9E",
"p.	c #98CF9C",
"q.	c #93CD95",
"r.	c #9FD2B2",
"s.	c #B5DEF1",
"t.	c #AEDCF0",
"u.	c #A7DBEF",
"v.	c #9AD8EF",
"w.	c #A1D9EF",
"x.	c #B3DEF6",
"y.	c #A5D6CE",
"z.	c #82C386",
"A.	c #88C485",
"B.	c #57BA6D",
"C.	c #1BAD53",
"D.	c #A3D9C7",
"E.	c #E6EFFD",
"F.	c #E0EDF4",
"G.	c #E6F0F6",
"H.	c #EBF3F8",
"I.	c #FEFAFF",
"J.	c #9AD8B5",
"K.	c #0EA947",
"L.	c #11AA4A",
"M.	c #74C587",
"N.	c #A2D1A3",
"O.	c #99CF9E",
"P.	c #98CF9D",
"Q.	c #97CF9C",
"R.	c #95CE9A",
"S.	c #94CD99",
"T.	c #92CC97",
"U.	c #8DC98F",
"V.	c #A0D3BD",
"W.	c #B2DEF4",
"X.	c #95D6EF",
"Y.	c #ACDDF4",
"Z.	c #A7D8DC",
"`.	c #7DC182",
" +	c #7DC17F",
".+	c #84C487",
"++	c #85C489",
"@+	c #20AD51",
"#+	c #19AD51",
"$+	c #B0DDCE",
"%+	c #F2F3FF",
"&+	c #EEF3FB",
"*+	c #FFFBFF",
"=+	c #B0E0C6",
"-+	c #17AC4E",
";+	c #0CA947",
">+	c #40B767",
",+	c #9BD09D",
"'+	c #96CE9B",
")+	c #93CD98",
"!+	c #91CB95",
"~+	c #8ECA93",
"{+	c #8BC990",
"]+	c #88C78B",
"^+	c #A3D6CF",
"/+	c #ACDDF5",
"(+	c #A3DAF0",
"_+	c #AADCEE",
":+	c #80C590",
"<+	c #75BE76",
"[+	c #7CC180",
"}+	c #7EC282",
"|+	c #88C489",
"1+	c #47B768",
"2+	c #0AA946",
"3+	c #22AF57",
"4+	c #9FD9BE",
"5+	c #E3F0EE",
"6+	c #9CD9B6",
"7+	c #1BAD51",
"8+	c #0FA949",
"9+	c #1FAE53",
"0+	c #83C88E",
"a+	c #96CD99",
"b+	c #91CC96",
"c+	c #90CB95",
"d+	c #8CC991",
"e+	c #8AC88F",
"f+	c #89C78E",
"g+	c #86C588",
"h+	c #8AC792",
"i+	c #A7DAE7",
"j+	c #A4DAF1",
"k+	c #A6DCF6",
"l+	c #8DB7A0",
"m+	c #778C51",
"n+	c #817449",
"o+	c #846F48",
"p+	c #84784F",
"q+	c #859968",
"r+	c #72B173",
"s+	c #1AAC50",
"t+	c #12AA4A",
"u+	c #13AA4B",
"v+	c #29B25C",
"w+	c #12AA4B",
"x+	c #14AB4C",
"y+	c #11AA4B",
"z+	c #5EBD77",
"A+	c #95CB97",
"B+	c #8DCA92",
"C+	c #8DC992",
"D+	c #8BC890",
"E+	c #89C58E",
"F+	c #7CAE80",
"G+	c #6C916E",
"H+	c #627F64",
"I+	c #5E7860",
"J+	c #608160",
"K+	c #739A86",
"L+	c #95C3D9",
"M+	c #99D4EA",
"N+	c #8FD5F0",
"O+	c #9CC4DC",
"P+	c #987176",
"Q+	c #874128",
"R+	c #8D2315",
"S+	c #920B06",
"T+	c #930805",
"U+	c #920E09",
"V+	c #8E2C1D",
"W+	c #8E4B33",
"X+	c #64703F",
"Y+	c #12A649",
"Z+	c #14AB4B",
"`+	c #10AA4B",
" @	c #41B666",
".@	c #8DC890",
"+@	c #8AC78E",
"@@	c #89C78D",
"#@	c #7DB280",
"$@	c #638165",
"%@	c #556556",
"&@	c #474A47",
"*@	c #444444",
"=@	c #484E48",
"-@	c #5B6C6D",
";@	c #6B8692",
">@	c #83B5C9",
",@	c #90A1B5",
"'@	c #94444C",
")@	c #950000",
"!@	c #8F0B05",
"~@	c #5B4A20",
"{@	c #1F9944",
"]@	c #39B360",
"^@	c #84C488",
"/@	c #89C58B",
"(@	c #86C58A",
"_@	c #87C58A",
":@	c #79AC7C",
"<@	c #586B59",
"[@	c #515D62",
"}@	c #93292F",
"|@	c #930301",
"1@	c #696F40",
"2@	c #7FC283",
"3@	c #83C386",
"4@	c #81C385",
"5@	c #658867",
"6@	c #8B4D33",
"7@	c #7DC181",
"8@	c #5A745C",
"9@	c #960000",
"0@	c #94452D",
"a@	c #78BF7C",
"b@	c #47755B",
"c@	c #454444",
"d@	c #454545",
"e@	c #910D07",
"f@	c #90110A",
"g@	c #930704",
"h@	c #A60000",
"i@	c #642C22",
"j@	c #204040",
"k@	c #414040",
"l@	c #464A46",
"m@	c #4F6550",
"n@	c #547756",
"o@	c #527254",
"p@	c #4B5B4C",
"q@	c #8D1F12",
"r@	c #7B7042",
"s@	c #6EA762",
"t@	c #6ABC6F",
"u@	c #6BB66B",
"v@	c #70A05E",
"w@	c #805935",
"x@	c #9A0000",
"y@	c #9C0000",
"z@	c #3D2828",
"A@	c #294141",
"B@	c #454343",
"C@	c #4D614E",
"D@	c #619E65",
"E@	c #69B96E",
"F@	c #66B06A",
"G@	c #578256",
"H@	c #444645",
"I@	c #876D5F",
"J@	c #67BA65",
"K@	c #6ABC6E",
"L@	c #6BB36A",
"M@	c #854328",
"N@	c #930000",
"O@	c #A80000",
"P@	c #7D0606",
"Q@	c #243737",
"R@	c #3B4040",
"S@	c #5B8D5E",
"T@	c #68BA66",
"U@	c #73C28E",
"V@	c #87C6DD",
"W@	c #494F51",
"X@	c #4E585C",
"Y@	c #918698",
"Z@	c #90D6F4",
"`@	c #7BC7A9",
" #	c #68BB68",
".#	c #69BB6A",
"+#	c #84472A",
"@#	c #970000",
"##	c #A70000",
"$#	c #4A1E1E",
"%#	c #243F3F",
"&#	c #424141",
"*#	c #5C8F5F",
"=#	c #69BC6D",
"-#	c #67BA66",
";#	c #71C189",
">#	c #8CD3E7",
",#	c #8CD0EA",
"'#	c #933940",
")#	c #90D5F2",
"!#	c #91D6F6",
"~#	c #83CCC2",
"{#	c #6FBF7D",
"]#	c #67BA67",
"^#	c #68BB6A",
"/#	c #8C2415",
"(#	c #940000",
"_#	c #AA0000",
":#	c #730A0A",
"<#	c #1D3535",
"[#	c #4A674D",
"}#	c #69BB6C",
"|#	c #7AC6A5",
"1#	c #8DD4EC",
"2#	c #8FD5F1",
"3#	c #92D6F7",
"4#	c #90D4E8",
"5#	c #83CBB6",
"6#	c #73C185",
"7#	c #6ABC6D",
"8#	c #67BA68",
"9#	c #68BB6B",
"0#	c #709F5E",
"a#	c #9E0000",
"b#	c #900000",
"c#	c #302726",
"d#	c #66B56B",
"e#	c #68BB69",
"f#	c #6EBE78",
"g#	c #7BC69F",
"h#	c #8BD1D7",
"i#	c #90D6F3",
"j#	c #90D5F3",
"k#	c #95D7F7",
"l#	c #97D7EE",
"m#	c #90D2D3",
"n#	c #85CBB2",
"o#	c #7BC595",
"p#	c #73C081",
"q#	c #6DBE75",
"r#	c #8B2615",
"s#	c #980000",
"t#	c #A10000",
"u#	c #425236",
"v#	c #6BBD72",
"w#	c #70BF7B",
"x#	c #76C38B",
"y#	c #80C8A4",
"z#	c #8BCFC5",
"A#	c #93D4E4",
"B#	c #95D7F6",
"C#	c #91D6F5",
"D#	c #92D6F1",
"E#	c #98D8F4",
"F#	c #9DD9F7",
"G#	c #9FDAF4",
"H#	c #9FD8EC",
"I#	c #9CD6E0",
"J#	c #99D4D5",
"K#	c #96D2CA",
"L#	c #936A62",
"M#	c #9D0000",
"N#	c #82706A",
"O#	c #97D3D0",
"P#	c #9AD5DA",
"Q#	c #9DD7E7",
"R#	c #9ED9F1",
"S#	c #9DD9F6",
"T#	c #99D8F6",
"U#	c #93D6F2",
"V#	c #91D5F0",
"W#	c #94D6EF",
"X#	c #97D7EF",
"Y#	c #9BD8F1",
"Z#	c #9ED9F2",
"`#	c #A1DAF4",
" $	c #A4DBF5",
".$	c #9F8B9B",
"+$	c #A46C79",
"@$	c #9FD9F3",
"#$	c #9BD8F2",
"$$	c #98D7F0",
"%$	c #99D7EF",
"&$	c #998492",
"*$	c #975F69",
"                                                                                                ",
"                                          . . + + + + .                                         ",
"                                      @ # $ % & * * & % $ # @                                   ",
"                                  = - ; > , ' ) ! ! ) ' , > ; - =                               ",
"                                # ~ { ] ^ / ( _ : : _ ( / ^ ] { ~ -                             ",
"                              $ > ' < ( [ } | | 1 1 | | } [ ( < ' > $                           ",
"                            $ 2 3 4 : 5 1 6 7 8 9 9 8 7 6 0 5 : 4 3 2 $                         ",
"                          $ 2 3 a b c d 8 e f g h h g f e i j 1 b a 3 2 $                       ",
"                        # * ] 4 b 0 7 e g k l m n n m l o p q r s } 4 ] t #                     ",
"                        ; ' / b 1 8 f h u v w x y y x z A B C D E F b / ' ;                     ",
"                      - G ^ : 1 7 f H I w J K L M N O P Q R S T U V W : ^ G -                   ",
"                    . % ' X 5 d e Y m Z ` M  ...+.@.#.$.%.&.*.=.-.;.>.,.X ' % .                 ",
"                    '.* ^ : ).r !.~.w ` M ..{.].^./.(._.:.<.[.}.|.1.2.3.4.^ * '.                ",
"                  5.- 6./ 7.8.9.0.a.b.L c.d.e.f.g.h.i.j.k.l.m.n.o.p.q.r.s.t.u.- 5.              ",
"                  v.w., x.y.z.A.B.C.D.E.F.G.H.I.J.K.L.M.N.O.P.Q.R.S.T.U.V.W., w.v.              ",
"                X.. % Y.Z.`. +.+++@+#+$+%+&+*+=+-+;+>+,+'+R.S.)+T.!+~+{+]+^+/+% . X.            ",
"                X.+ (+_+:+<+[+}+|+1+2+3+4+5+6+7+8+9+0+a+T.b+!+c+~+d+e+f+g+h+i+j++ X.            ",
"                X.+ k+l+m+n+o+p+q+r+s+t+u+v+w+x+y+z+A+B+B+C+d+D+E+F+G+H+I+J+K+L+M+X.            ",
"              N+X.O+P+Q+R+S+T+U+V+W+X+Y+-+Z+-+`+ @.@+@f+f+f+@@#@$@%@&@*@*@*@=@-@;@>@N+          ",
"              ,@'@)@)@)@)@)@)@)@)@)@)@!@~@{@`+]@^@/@(@_@_@:@<@*@*@*@*@*@*@*@*@*@*@*@[@          ",
"            }@)@)@)@)@)@)@)@)@)@)@)@)@)@)@|@1@2@3@4@z.z.5@*@*@*@*@*@*@*@*@*@*@*@*@*@*@*@*@      ",
"          )@)@)@)@)@)@)@)@)@)@)@)@)@)@)@)@)@)@6@[+7@7@8@*@*@*@*@*@*@*@*@*@*@*@*@*@*@*@*@*@*@    ",
"        )@)@)@)@)@)@)@)@)@)@)@)@)@)@)@)@)@)@)@9@0@a@b@c@d@*@*@*@*@*@*@*@*@*@*@*@*@*@*@*@*@*@*@  ",
"      )@)@)@)@)@)@)@)@)@)@e@f@g@)@)@)@)@)@)@)@9@h@i@j@k@d@*@*@*@*@*@l@m@n@o@p@*@*@*@*@*@*@*@    ",
"      )@)@)@)@)@)@)@q@r@s@t@t@u@v@w@S+)@)@)@)@)@x@y@z@A@B@d@*@*@C@D@E@t@t@t@t@F@G@H@*@*@*@      ",
"    )@)@)@)@)@)@)@I@J@K@t@t@t@t@t@t@L@M@)@)@)@)@N@O@P@Q@R@d@d@S@t@t@t@t@t@t@t@T@U@V@W@X@        ",
"  )@)@)@)@)@)@)@Y@Z@`@ #.#t@t@t@t@t@t@t@+#)@)@)@)@@###$#%#&#*#t@t@t@t@t@t@=#-#;#>#Z@,#          ",
"  )@)@)@)@)@)@'#N+)#!#~#{#]#^#K@t@t@t@t@t@/#)@)@)@(#_#:#<#[#t@t@t@t@t@}#]#t@|#1#Z@N+            ",
"  )@)@)@)@)@)@    N+2#3#4#5#6#7#]#8#9#=#K@0#)@)@)@)@a#b#c#d#=#}#^#]#e#f#g#h#!#i#N+              ",
"  )@)@)@)@)@)@      N+N+j#k#l#m#n#o#p#q#K@9#r#)@)@)@s#t#u#}#v#w#x#y#z#A#B#C#N+N+                ",
")@)@)@)@)@)@            N+N+D#E#F#G#H#I#J#K#L#)@)@)@)@M#N#O#P#Q#R#S#T#U#N+N+                    ",
")@)@)@)@)@)@                N+V#W#X#Y#Z#`# $.$)@)@)@)@N@+$`#@$#$$$W#V#N+                        ",
")@)@)@)@)@)@                        X.X#%$. &$)@)@)@)@)@*$%$X#X.                                ",
")@)@)@)@)@)@                                  )@)@)@)@)@)@                                      ",
"  )@)@)@)@)@                                )@)@)@)@)@)@)@                                      ",
"  )@)@)@)@)@)@                              )@)@)@)@)@)@)@                                      ",
"  )@)@)@)@)@)@                            )@)@)@)@)@)@)@)@)@                                    ",
"  )@)@)@)@)@)@)@                          )@)@)@)@)@)@)@)@)@)@                        )@)@      ",
"    )@)@)@)@)@)@)@                      )@)@)@)@)@)@)@)@)@)@)@)@                    )@)@)@)@    ",
"    )@)@)@)@)@)@)@)@)@              )@)@)@)@)@)@)@)@)@)@)@)@)@)@)@)@            )@)@)@)@)@)@)@  ",
"      )@)@)@)@)@)@)@)@)@)@)@)@)@)@)@)@)@)@)@)@)@)@)@)@)@)@)@)@)@)@)@)@)@)@)@)@)@)@)@)@)@)@)@)@)@",
"        )@)@)@)@)@)@)@)@)@)@)@)@)@)@)@)@)@)@)@)@)@    )@)@)@)@)@)@)@)@)@)@)@)@)@)@)@)@)@)@)@)@  ",
"          )@)@)@)@)@)@)@)@)@)@)@)@)@)@)@)@)@)@)@        )@)@)@)@)@)@)@)@)@)@)@)@)@)@)@)@)@)@    ",
"            )@)@)@)@)@)@)@)@)@)@)@)@)@)@)@)@)@            )@)@)@)@)@)@)@)@)@)@)@)@)@)@)@)@      ",
"                )@)@)@)@)@)@)@)@)@)@)@)@)@                  )@)@)@)@)@)@)@)@)@)@)@)@)@          ",
"                    )@)@)@)@)@)@)@)@)@                            )@)@)@)@)@)@)@)@              ",
"                          )@)@)@                                                                ",
"                                                                                                "};
